<svg version="1.1" xmlns="http://www.w3.org/2000/svg" viewBox="0 0 1225.0315131242392 543.6068325358522" width="1225.0315131242392" height="543.6068325358522">
  <!-- svg-source:excalidraw -->
  
  <defs>
    <style class="style-fonts">
      
    </style>
    
  </defs>
  <rect x="0" y="0" width="1225.0315131242392" height="543.6068325358522" fill="#ffffff"></rect><g stroke-linecap="round" transform="translate(374.4185685784787 247.65525280313358) rotate(358.8830214317977 140.4146833746462 134.70331413441232)"><path d="M32 0 C107.88 -0.12, 190.67 0.22, 248.83 0 C267.38 -2.65, 285.98 16.23, 280.83 32 C277.99 100.32, 277.17 156.72, 280.83 237.41 C276.79 259.91, 269.22 271.51, 248.83 269.41 C192.08 266.78, 144.04 263.65, 32 269.41 C11.37 272.61, -3.99 255.96, 0 237.41 C-4.45 191.53, -3.69 151.27, 0 32 C1.31 14.46, 6.4 3, 32 0" stroke="none" stroke-width="0" fill="#ffd8a8"></path><path d="M32 0 C96.23 2.3, 159.01 3.89, 248.83 0 M32 0 C111.28 0.87, 194.04 -1.35, 248.83 0 M248.83 0 C266.75 1.86, 283.57 6.92, 280.83 32 M248.83 0 C268.35 -2.05, 278.94 9.57, 280.83 32 M280.83 32 C279.58 96.99, 283.35 166.18, 280.83 237.41 M280.83 32 C284.92 90.61, 282.32 146.16, 280.83 237.41 M280.83 237.41 C277.53 259.82, 269.81 269.77, 248.83 269.41 M280.83 237.41 C280.57 258.16, 271.66 268.3, 248.83 269.41 M248.83 269.41 C184.74 270.96, 118.1 269.23, 32 269.41 M248.83 269.41 C188.28 271.35, 126.27 270.91, 32 269.41 M32 269.41 C9.28 265.68, 2.92 258.34, 0 237.41 M32 269.41 C13.43 271.29, 4.51 260.02, 0 237.41 M0 237.41 C0.81 166.56, 0.72 101.17, 0 32 M0 237.41 C0.86 182.48, 0.83 129.42, 0 32 M0 32 C-1.04 11.97, 7.49 0.52, 32 0 M0 32 C-1.66 7.82, 9.29 -2.18, 32 0" stroke="#e03131" stroke-width="2" fill="none"></path></g><g stroke-linecap="round" transform="translate(424.33331298828125 140.19184940824908) rotate(319.86094938555095 138.00001525878906 136)"><path d="M32 0 C107.26 -4.46, 171.12 -7.36, 244 0 C266.52 -4.08, 274.37 14.95, 276 32 C273.61 86.57, 267.38 148.89, 276 240 C278.65 261.7, 260 267.52, 244 272 C194.59 263.3, 145.32 270.08, 32 272 C5.73 267.77, -3.54 256.15, 0 240 C4.09 189.8, -1.93 134.46, 0 32 C-2.49 6.57, 6.48 -4.8, 32 0" stroke="none" stroke-width="0" fill="#a5d8ff"></path><path d="M32 0 C88.58 -6.43, 152.11 -1.27, 244 0 M32 0 C101.94 2.22, 170 0.97, 244 0 M244 0 C264.87 3.98, 272.19 11.58, 276 32 M244 0 C267.43 1.24, 275.52 10.75, 276 32 M276 32 C277.58 89.96, 280.49 144.9, 276 240 M276 32 C278.64 92.59, 279.06 153.82, 276 240 M276 240 C279.76 262.24, 264.25 268.39, 244 272 M276 240 C276.97 263.03, 267.29 273.8, 244 272 M244 272 C163.87 266.27, 75.98 270.34, 32 272 M244 272 C186.48 268.03, 130.55 267.5, 32 272 M32 272 C10.54 274.51, 2.15 259.73, 0 240 M32 272 C8.17 274.71, 1.4 264.15, 0 240 M0 240 C4.47 178.89, 0.54 116.25, 0 32 M0 240 C3.33 175.53, 4.76 110.12, 0 32 M0 32 C2.53 9.55, 10.33 -1.79, 32 0 M0 32 C2.36 8.14, 9.81 -3.13, 32 0" stroke="#e03131" stroke-width="2" fill="none"></path></g><g stroke-linecap="round" transform="translate(21.251942601916653 261.48859630899307) rotate(358.8830214317977 140.4146833746462 134.70331413441238)"><path d="M32 0 C95.54 -2.29, 155.75 -4.2, 248.83 0 C270.19 2.42, 281.56 7.42, 280.83 32 C280.99 103.1, 277.66 177.31, 280.83 237.41 C278.06 262.03, 270.6 267.77, 248.83 269.41 C187.09 263.75, 132 269.72, 32 269.41 C7.95 267.2, -5.36 257.19, 0 237.41 C-0.57 159.87, 4.43 75.4, 0 32 C-4.48 7.82, 5.97 -0.94, 32 0" stroke="none" stroke-width="0" fill="#ffd8a8"></path><path d="M32 0 C85.92 -2.29, 139.13 1.36, 248.83 0 M32 0 C119.54 2.03, 202.43 1.64, 248.83 0 M248.83 0 C270.21 -3.17, 279.79 7.76, 280.83 32 M248.83 0 C270.02 -2.85, 280.01 8.22, 280.83 32 M280.83 32 C284.83 102.79, 283.79 164.53, 280.83 237.41 M280.83 32 C284.12 102.94, 284.46 175.35, 280.83 237.41 M280.83 237.41 C281.88 260.18, 270.76 271.52, 248.83 269.41 M280.83 237.41 C278.22 254.18, 266.63 266.83, 248.83 269.41 M248.83 269.41 C171.64 266.82, 103.73 272.91, 32 269.41 M248.83 269.41 C172.52 267.22, 100.12 270.04, 32 269.41 M32 269.41 C13.02 271.05, 3.76 260.21, 0 237.41 M32 269.41 C10.84 267.96, 1.35 262.96, 0 237.41 M0 237.41 C-0.62 164.94, -2.48 87.31, 0 32 M0 237.41 C3.44 195.87, 2.09 151.1, 0 32 M0 32 C-3.84 9.16, 13.41 -1.58, 32 0 M0 32 C-0.06 6.89, 14.88 0.14, 32 0" stroke="#e03131" stroke-width="2" fill="none"></path></g><g stroke-linecap="round" transform="translate(843.7519273431271 239.6630951046739) rotate(358.8830214317977 140.4146833746462 134.70331413441238)"><path d="M32 0 C108.09 3.38, 190.73 3.07, 248.83 0 C268.91 -4.8, 276.51 10.82, 280.83 32 C283.5 110.01, 280.93 192.89, 280.83 237.41 C283.84 262.87, 269.52 270.05, 248.83 269.41 C170.65 264.65, 100.01 267.22, 32 269.41 C12.16 270.44, 5.21 254.78, 0 237.41 C-8.28 161.26, -0.47 74.69, 0 32 C1.75 13.78, 8.28 3.14, 32 0" stroke="none" stroke-width="0" fill="#ffd8a8"></path><path d="M32 0 C97.24 1.12, 170.53 4.08, 248.83 0 M32 0 C114.62 0.29, 195.75 -0.77, 248.83 0 M248.83 0 C270.39 2.63, 281.42 11.77, 280.83 32 M248.83 0 C272 0.27, 281.7 12.03, 280.83 32 M280.83 32 C278.17 99.37, 280.27 164.18, 280.83 237.41 M280.83 32 C282.1 99.69, 283.62 169.05, 280.83 237.41 M280.83 237.41 C279.69 255.75, 272.27 266, 248.83 269.41 M280.83 237.41 C276.24 257.74, 274.32 267.6, 248.83 269.41 M248.83 269.41 C164.21 270.88, 81.71 269.22, 32 269.41 M248.83 269.41 C201.95 269.5, 156.6 270.81, 32 269.41 M32 269.41 C11.13 267.57, 2.66 259.22, 0 237.41 M32 269.41 C13.96 265.68, -1.67 257.12, 0 237.41 M0 237.41 C2.3 167.87, 2.68 100.03, 0 32 M0 237.41 C-1.93 176.19, -3.22 114.36, 0 32 M0 32 C0.19 7.58, 7.01 1.33, 32 0 M0 32 C0.96 15.05, 13.44 -1.33, 32 0" stroke="#e03131" stroke-width="2" fill="none"></path></g><g stroke-linecap="round" transform="translate(892.3332977294922 59.53303521564891) rotate(297.83307670088067 138.00001525878906 136)"><path d="M32 0 C97.47 -0.58, 166.54 -8.97, 244 0 C261.02 0.15, 280.52 9.49, 276 32 C281.06 88.72, 282.55 140.24, 276 240 C275.35 261.98, 267.67 268.55, 244 272 C197.79 274.04, 154.07 272.63, 32 272 C15.88 268.04, 4.85 265.36, 0 240 C7.95 153.24, 6.3 76.93, 0 32 C-2.38 13.81, 7.79 -1.54, 32 0" stroke="none" stroke-width="0" fill="#a5d8ff"></path><path d="M32 0 C84.63 3.07, 133.28 1.17, 244 0 M32 0 C97.45 -1.75, 162.76 -0.13, 244 0 M244 0 C265.92 1.11, 277.59 10.9, 276 32 M244 0 C266.2 1.36, 276.81 9, 276 32 M276 32 C275.38 80.9, 275.76 127.78, 276 240 M276 32 C277.08 81.3, 275.2 128.16, 276 240 M276 240 C278.11 257.93, 261.34 271.13, 244 272 M276 240 C280.16 259.53, 269.62 273.28, 244 272 M244 272 C169.13 267.94, 84.24 268.68, 32 272 M244 272 C172.07 269.6, 102.69 268.66, 32 272 M32 272 C13.33 272.48, 2.86 258.1, 0 240 M32 272 C8.99 270.38, 1.78 258.73, 0 240 M0 240 C0.36 169.13, -0.2 98.22, 0 32 M0 240 C-3.03 198.46, -3.28 154.18, 0 32 M0 32 C-3.66 11.99, 11.5 3.81, 32 0 M0 32 C2.78 9.33, 13.95 -4.08, 32 0" stroke="#e03131" stroke-width="2" fill="none"></path></g><g stroke-linecap="round" transform="translate(834.3333740234375 226.19191044340533) rotate(0 20.33331298828125 20.999984741210938)"><path d="M11.87 3.11 C15.52 0.94, 20.37 0.49, 24.61 1.49 C28.84 2.48, 34.56 5.57, 37.28 9.07 C40.01 12.56, 41.33 18.15, 40.97 22.43 C40.61 26.71, 38.21 31.43, 35.12 34.73 C32.03 38.03, 26.85 41.74, 22.41 42.24 C17.98 42.75, 12.03 40.21, 8.52 37.77 C5.01 35.33, 2.59 31.68, 1.36 27.61 C0.12 23.55, -0.88 17.69, 1.09 13.36 C3.07 9.04, 10.52 3.91, 13.22 1.68 C15.92 -0.54, 16.98 -0.28, 17.3 0.01 M29.32 3.12 C33.21 4.29, 36.1 6.83, 37.88 10.83 C39.67 14.82, 41.23 22.6, 40.03 27.09 C38.83 31.59, 34.04 35.47, 30.68 37.82 C27.32 40.16, 24.18 41.62, 19.88 41.17 C15.57 40.72, 8.27 38.21, 4.85 35.14 C1.43 32.07, -0.62 27.33, -0.66 22.76 C-0.69 18.18, 2.27 11.18, 4.67 7.7 C7.07 4.22, 9.91 2.94, 13.74 1.89 C17.57 0.84, 25.02 1.17, 27.68 1.4 C30.33 1.64, 29.83 3.13, 29.68 3.31" stroke="none" stroke-width="0" fill="#e03131"></path><path d="M23.29 1.14 C27.17 1.29, 31.68 3.43, 34.56 6.55 C37.45 9.67, 40.37 15.33, 40.61 19.83 C40.85 24.33, 38.54 30.1, 36.03 33.55 C33.51 37, 29.7 39.39, 25.54 40.54 C21.39 41.69, 14.99 42.55, 11.08 40.45 C7.17 38.35, 3.84 32.39, 2.09 27.94 C0.34 23.49, -0.74 17.93, 0.56 13.78 C1.87 9.63, 6.06 5.39, 9.93 3.04 C13.8 0.68, 21.16 -0.13, 23.79 -0.35 C26.43 -0.57, 25.83 1.34, 25.72 1.73 M25.61 -0.08 C29.96 1.01, 36.66 7.19, 39.29 11.26 C41.92 15.33, 42.3 19.83, 41.39 24.34 C40.49 28.85, 37.33 35.47, 33.86 38.33 C30.38 41.19, 25.1 41.56, 20.56 41.5 C16.02 41.44, 9.9 40.52, 6.61 37.97 C3.32 35.41, 1.66 30.86, 0.82 26.19 C-0.01 21.51, -0.38 14.29, 1.6 9.93 C3.58 5.57, 8.56 1.32, 12.72 0.03 C16.88 -1.27, 24.21 1.9, 26.57 2.18 C28.94 2.45, 26.81 1.45, 26.91 1.69" stroke="#e03131" stroke-width="2" fill="none"></path></g><g stroke-linecap="round" transform="translate(360 241.1919257021944) rotate(0 20.33331298828125 20.999984741210938)"><path d="M14.49 1.16 C18.23 -0.4, 24.16 -0.34, 28.01 1.24 C31.87 2.82, 35.57 6.66, 37.62 10.61 C39.67 14.55, 41.07 20.32, 40.32 24.92 C39.58 29.52, 36.45 35.28, 33.16 38.23 C29.87 41.17, 24.97 42.92, 20.58 42.61 C16.19 42.31, 10.26 39.56, 6.83 36.39 C3.39 33.23, 0.6 27.95, -0.03 23.62 C-0.65 19.29, 0.24 14.36, 3.08 10.42 C5.93 6.48, 13.98 1.74, 17.04 -0.01 C20.11 -1.77, 21.22 -0.35, 21.47 -0.12 M17.61 -0.28 C21.33 -0.81, 26.39 2.13, 30.18 4.59 C33.97 7.05, 38.86 10.4, 40.36 14.48 C41.86 18.57, 40.9 25.06, 39.19 29.09 C37.49 33.13, 33.96 36.75, 30.14 38.69 C26.32 40.62, 20.45 41.64, 16.26 40.7 C12.06 39.76, 7.45 36.66, 4.96 33.03 C2.47 29.39, 1.1 23.04, 1.3 18.9 C1.5 14.76, 3.44 11.19, 6.18 8.17 C8.91 5.16, 15.97 2.28, 17.71 0.79 C19.45 -0.7, 16.73 -1.18, 16.63 -0.79" stroke="none" stroke-width="0" fill="#e03131"></path><path d="M19.67 0.63 C24.02 0.06, 29.51 1.38, 33.07 4.1 C36.63 6.82, 40.13 12.6, 41.01 16.94 C41.9 21.27, 40.33 26.07, 38.39 30.11 C36.45 34.14, 33.43 39.2, 29.38 41.16 C25.34 43.13, 18.28 43.41, 14.12 41.89 C9.95 40.36, 6.81 36.01, 4.41 32.02 C2 28.03, -0.66 22.21, -0.3 17.95 C0.07 13.69, 3.25 9.43, 6.61 6.45 C9.97 3.47, 17.63 1.07, 19.87 0.06 C22.12 -0.95, 20.07 0.18, 20.06 0.38 M17.37 -0.83 C21.14 -1.81, 25.5 1.36, 29.19 3.56 C32.88 5.75, 37.6 8.46, 39.49 12.34 C41.39 16.23, 42.19 22.24, 40.55 26.86 C38.91 31.48, 33.5 37.69, 29.65 40.06 C25.8 42.42, 21.41 41.8, 17.46 41.08 C13.51 40.36, 8.91 38.99, 5.93 35.72 C2.95 32.46, -0.03 26.27, -0.4 21.47 C-0.77 16.68, 0.92 10.3, 3.73 6.98 C6.55 3.66, 14.27 2.48, 16.49 1.56 C18.7 0.64, 17.07 1.31, 17.02 1.46" stroke="#e03131" stroke-width="2" fill="none"></path></g><g stroke-linecap="round" transform="translate(10 251.1919257021944) rotate(0 20.33331298828125 20.999984741210938)"><path d="M19.46 -0.52 C23.49 -0.82, 29.51 1.49, 33.05 4.33 C36.59 7.17, 39.96 12.12, 40.71 16.51 C41.45 20.9, 39.75 26.52, 37.53 30.65 C35.31 34.78, 31.32 39.58, 27.39 41.31 C23.46 43.04, 18.04 42.52, 13.94 41.03 C9.85 39.54, 5.12 36.4, 2.81 32.34 C0.5 28.29, -0.53 21.36, 0.08 16.72 C0.7 12.08, 2.15 7.02, 6.49 4.52 C10.84 2.02, 21.93 1.86, 26.13 1.71 C30.33 1.56, 31.93 3.38, 31.69 3.62 M26.6 1.79 C30.54 3.02, 35.38 6.99, 37.65 11.11 C39.92 15.22, 41.09 22.18, 40.22 26.5 C39.35 30.82, 36.01 34.29, 32.43 37.04 C28.86 39.79, 23.28 43.04, 18.77 42.99 C14.26 42.95, 8.22 40.15, 5.36 36.76 C2.5 33.38, 2.11 27.29, 1.58 22.69 C1.05 18.1, 0.06 12.84, 2.17 9.18 C4.27 5.51, 9.95 2.22, 14.23 0.7 C18.5 -0.83, 25.64 0, 27.83 0.03 C30.01 0.07, 27.32 0.5, 27.32 0.93" stroke="none" stroke-width="0" fill="#e03131"></path><path d="M17.52 0.23 C21.67 -0.85, 27.04 0.87, 30.74 3.08 C34.44 5.29, 38.27 9.36, 39.72 13.49 C41.18 17.63, 40.97 23.68, 39.47 27.88 C37.97 32.09, 34.39 36.6, 30.72 38.74 C27.04 40.88, 21.65 41.35, 17.4 40.74 C13.15 40.14, 8.09 38.39, 5.21 35.12 C2.33 31.85, 0.27 25.91, 0.12 21.12 C-0.04 16.33, 1.13 9.78, 4.28 6.36 C7.44 2.93, 16.19 1.72, 19.07 0.58 C21.94 -0.56, 21.51 -0.73, 21.51 -0.49 M13.98 2.76 C17.53 0.94, 21.64 -0.03, 25.69 1.16 C29.74 2.34, 35.81 6.02, 38.29 9.86 C40.76 13.71, 41.2 19.68, 40.52 24.22 C39.84 28.76, 37.67 34.26, 34.23 37.11 C30.79 39.95, 24.15 40.96, 19.88 41.27 C15.6 41.57, 11.69 41.76, 8.59 38.92 C5.49 36.07, 2.34 29.01, 1.26 24.18 C0.18 19.35, -0.02 13.89, 2.12 9.91 C4.26 5.93, 12.45 1.73, 14.08 0.3 C15.7 -1.12, 12.05 0.66, 11.88 1.38" stroke="#e03131" stroke-width="2" fill="none"></path></g></svg>